:SAMPLES-PER-SECOND 30
:FULLY-SPECIFIED
:DEGREES
276
root  -80.8539 40.2129 0.495439 -13.8242 -88.3687 8.84119
RightUpLeg  -6.67789 -8.56852 -4.20648
RightLeg  17.6226 9.88374 2.45916
RightFoot  -5.1252 -0.0593142 0.45071
RightToes  -2.9104e-010 0 -3.6325e-017
Spine  7.80217 -1.66302 6.44588
Spine1  -1.88709 -0.918163 0.232194
HEad  9.69326 -36.9909 -32.6123
LeftShoulder1  -0.0298773 3.5929 -27.4181
LeftArm  -8.31989 14.6856 -28.5317
LeftForeArm  28.4294 -7.22432 -5.73548
LeftHand  -0.0699266 7.53497 -1.63702
RightShoulder  -0.907425 -6.29295 25.9717
RightArm  -16.0882 -13.1592 28.2876
RightForeArm  20.4404 21.2978 2.81824
RightHand  0.0060432 6.11644 -0.260692
LeftUpLeg  -8.60971 6.26685 8.05616
LeftLeg  33.3428 -7.46469 -4.9029
LeftFoot  -5.71155 0.519877 -9.81733
LeftToes  -3.37426e-010 -1.91496e-010 5.23909e-011
277
root  -81.0113 40.156 0.245964 -13.8311 -88.4739 9.05888
RightUpLeg  -7.11516 -8.69211 -3.76999
RightLeg  18.5416 9.89545 2.74617
RightFoot  -5.7039 -0.0358723 -0.0562807
RightToes  -2.9104e-010 0 -3.6325e-017
Spine  7.85112 -1.08054 7.97814
Spine1  -1.86201 -0.0544209 -0.673791
HEad  11.0168 -38.9466 -32.4847
LeftShoulder1  -0.0427421 3.64063 -25.4483
LeftArm  -10.8342 14.8982 -26.1626
LeftForeArm  24.3403 -9.16458 -4.25169
LeftHand  -0.100933 7.91176 -2.51799
RightShoulder  -0.821549 -6.12905 24.6696
RightArm  -16.2106 -9.45178 23.358
RightForeArm  22.4707 23.0927 3.65914
RightHand  0.0497792 5.16172 0.25755
LeftUpLeg  -10.643 7.14065 8.63499
LeftLeg  36.2998 -6.71852 -4.92909
LeftFoot  -4.62458 0.684127 -11.1882
LeftToes  -3.37426e-010 -1.91496e-010 5.23909e-011
278
root  -81.1793 40.2139 0.0127997 -27.8542 -88.5056 22.8544
RightUpLeg  -6.48059 -8.86997 -3.86407
RightLeg  18.3406 10.1519 2.85139
RightFoot  -5.66148 -0.010316 -0.555328
RightToes  -2.9104e-010 0 -3.6325e-017
Spine  7.77024 -0.465552 9.0056
Spine1  -1.29171 0.883086 -2.18167
HEad  12.3408 -40.8074 -31.9578
LeftShoulder1  -0.117371 3.89067 -23.9263
LeftArm  -12.8485 13.0869 -23.1142
LeftForeArm  21.2209 -10.2033 -3.20592
LeftHand  -0.081908 7.1378 -2.42356
RightShoulder  -0.784832 -6.08476 23.7386
RightArm  -16.6643 -4.60305 18.7125
RightForeArm  19.7585 20.5161 2.46943
RightHand  -0.0372134 7.57604 -0.70968
LeftUpLeg  -11.075 7.84656 8.58149
LeftLeg  36.9566 -6.25266 -4.6781
LeftFoot  -5.35923 0.512546 -9.20998
LeftToes  -3.37426e-010 -1.91496e-010 5.23909e-011
279
root  -81.3383 40.3278 -0.199544 -31.1756 -87.8802 25.9821
RightUpLeg  -5.42599 -9.03572 -4.01945
RightLeg  17.2917 9.96147 2.61186
RightFoot  -5.29849 0.0199137 -1.03478
RightToes  -2.9104e-010 0 -3.6325e-017
Spine  7.35494 -0.215943 8.93695
Spine1  -0.491761 1.17406 -2.54974
HEad  13.4932 -42.1626 -31.4413
LeftShoulder1  -0.0815485 3.78791 -22.2205
LeftArm  -14.8424 11.6879 -20.5021
LeftForeArm  18.2115 -11.1789 -2.35171
LeftHand  -0.064842 6.91878 -1.48197
RightShoulder  -0.69029 -5.88944 22.1718
RightArm  -16.2224 -1.34344 14.2406
RightForeArm  14.5904 19.2341 1.84285
RightHand  -0.0924294 7.513 -1.1952
LeftUpLeg  -10.8481 7.94808 8.41905
LeftLeg  35.8586 -5.84584 -4.18353
LeftFoot  -7.1741 0.374896 -9.09212
LeftToes  -3.37426e-010 -1.91496e-010 5.23909e-011
280
root  -81.4904 40.4053 -0.372894 -29.0789 -87.192 23.6998
RightUpLeg  -4.48561 -9.46918 -4.24561
RightLeg  16.5661 9.83295 2.65993
RightFoot  -5.16961 0.0346211 -1.23477
RightToes  -2.9104e-010 0 -3.6325e-017
Spine  6.69476 -0.148568 8.66246
Spine1  0.291083 1.20763 -2.49133
HEad  14.4607 -43.1608 -30.0513
LeftShoulder1  -0.0402047 3.65243 -20.7652
LeftArm  -15.6098 11.7906 -17.101
LeftForeArm  16.7173 -14.6452 -2.42679
LeftHand  -0.195385 10.7971 -2.88763
RightShoulder  -0.561717 -5.57782 20.2219
RightArm  -16.2685 1.55679 10.954
RightForeArm  9.16045 17.403 0.771741
RightHand  -0.196632 7.48849 -2.14369
LeftUpLeg  -9.9897 7.72182 8.18727
LeftLeg  33.379 -4.57706 -2.89852
LeftFoot  -7.89427 0.284025 -7.86338
LeftToes  -3.37426e-010 -1.91496e-010 5.23909e-011
281
root  -81.62 40.4926 -0.50566 -29.8974 -86.5727 24.5813
RightUpLeg  -3.83678 -9.8086 -4.58768
RightLeg  15.7476 9.6766 2.72423
RightFoot  -4.91301 0.0424553 -1.31445
RightToes  -2.9104e-010 0 -3.6325e-017
Spine  6.29645 -0.106722 8.23565
Spine1  0.159765 1.17141 -2.56665
HEad  15.7905 -43.7682 -28.8522
LeftShoulder1  -0.0430472 3.66955 -19.2937
LeftArm  -18.1534 11.2124 -14.5433
LeftForeArm  17.5896 -16.7478 -2.28144
LeftHand  -0.162188 11.3287 -1.81091
RightShoulder  -0.476685 -5.38476 18.3593
RightArm  -15.0113 3.83764 7.6404
RightForeArm  4.77089 16.0334 0.21838
RightHand  -0.0618675 8.09666 -0.905985
LeftUpLeg  -9.02052 7.83164 7.80312
LeftLeg  30.3191 -3.6748 -1.9881
LeftFoot  -8.65339 0.226141 -7.43963
LeftToes  -3.37426e-010 -1.91496e-010 5.23909e-011
282
root  -81.6947 40.561 -0.578472 -31.0474 -86.2767 26.2039
RightUpLeg  -3.85416 -9.91189 -4.77372
RightLeg  15.0893 9.62425 2.79502
RightFoot  -4.70674 0.0452601 -1.32676
RightToes  -2.9104e-010 0 -3.6325e-017
Spine  5.56058 -0.00591471 8.2635
Spine1  0.241785 1.26474 -3.23293
HEad  16.6756 -44.4947 -27.0862
LeftShoulder1  -0.0243922 3.60399 -17.7199
LeftArm  -21.9199 9.90566 -12.864
LeftForeArm  18.9493 -17.9455 -2.00523
LeftHand  -0.0486777 9.08684 0.0169475
RightShoulder  -0.423199 -5.27047 16.8831
RightArm  -15.5304 5.71688 5.02467
RightForeArm  1.79551 15.4896 -0.0104309
RightHand  -0.148406 8.03918 -1.6526
LeftUpLeg  -8.15004 8.17908 7.44721
LeftLeg  26.9363 -2.79527 -1.21358
LeftFoot  -8.46345 0.235836 -7.3658
LeftToes  -3.37426e-010 -1.91496e-010 5.23909e-011
283
root  -81.7564 40.5856 -0.627749 -30.002 -85.7679 25.5846
RightUpLeg  -3.96908 -10.3504 -5.15067
RightLeg  14.8222 9.71762 3.1665
RightFoot  -5.0383 -0.0117684 -0.399695
RightToes  -2.9104e-010 0 -3.6325e-017
Spine  4.81534 -0.0629179 7.75277
Spine1  0.431159 1.08872 -3.14011
HEad  17.1613 -45.1855 -24.9522
LeftShoulder1  -0.0277444 3.62184 -16.788
LeftArm  -24.6188 8.82635 -11.3628
LeftForeArm  19.0728 -18.3244 -1.88513
LeftHand  -0.0205529 6.34138 1.57166
RightShoulder  -0.386869 -5.18563 15.8205
RightArm  -19.9871 6.79981 3.55128
RightForeArm  3.34123 16.453 0.0391923
RightHand  -0.312487 7.98523 -3.08284
LeftUpLeg  -7.35043 7.95875 7.21927
LeftLeg  24.1104 -2.64567 -0.960974
LeftFoot  -8.39735 0.238546 -7.3196
LeftToes  -3.37426e-010 -1.91496e-010 5.23909e-011
284
root  -81.7938 40.5961 -0.65776 -23.6727 -85.0865 19.4376
RightUpLeg  -4.01421 -10.4669 -5.09941
RightLeg  14.852 9.29645 3.22882
RightFoot  -4.78718 0.000464782 -0.500867
RightToes  -2.9104e-010 0 -3.6325e-017
Spine  4.29314 -0.294255 7.02903
Spine1  0.793954 0.655785 -2.19959
HEad  17.5862 -45.9402 -23.9486
LeftShoulder1  -0.047962 3.70904 -16.5843
LeftArm  -29.3819 8.86999 -10.3923
LeftForeArm  20.0164 -21.0578 -2.85028
LeftHand  -0.0203002 5.56903 3.2953
RightShoulder  -0.341994 -5.03737 15.0755
RightArm  -24.7535 6.86047 2.29767
RightForeArm  6.41669 19.0185 1.68729
RightHand  -0.421371 7.67999 -4.10134
LeftUpLeg  -6.61182 7.40781 7.55823
LeftLeg  22.3274 -3.538 -1.27772
LeftFoot  -9.17012 0.192348 -7.24463
LeftToes  -3.37426e-010 -1.91496e-010 5.23909e-011
285
root  -81.7143 40.6165 -0.577738 -23.2616 -85.1279 19.3477
RightUpLeg  -4.40546 -10.7133 -5.29287
RightLeg  14.7109 9.75324 3.5176
RightFoot  -4.47856 -0.0185693 -0.11449
RightToes  -2.9104e-010 0 -3.6325e-017
Spine  4.22856 -0.236836 7.10196
Spine1  0.608959 0.721621 -2.46993
HEad  17.8958 -46.5994 -23.7367
LeftShoulder1  -0.0630723 3.76918 -17.0055
LeftArm  -32.8706 9.66767 -9.92679
LeftForeArm  21.496 -25.5215 -4.39084
LeftHand  -0.000948975 6.25046 3.60083
RightShoulder  -0.39901 -5.29573 15.0738
RightArm  -28.692 6.88317 1.58893
RightForeArm  9.67226 22.3546 3.77222
RightHand  -0.401481 7.32008 -4.01788
LeftUpLeg  -6.26355 6.4518 7.75691
LeftLeg  21.7258 -3.59472 -1.25528
LeftFoot  -9.6378 0.163364 -7.11298
LeftToes  -3.37426e-010 -1.91496e-010 5.23909e-011
286
root  -81.6275 40.637 -0.483141 -24.1012 -85.1079 20.2727
RightUpLeg  -4.3495 -10.9515 -5.67697
RightLeg  14.1963 10.1464 3.67176
RightFoot  -4.61539 -0.108602 1.32223
RightToes  -2.9104e-010 0 -3.6325e-017
Spine  4.27177 -0.147538 6.66331
Spine1  0.61166 0.781277 -2.38707
HEad  17.6583 -47.3194 -22.4909
LeftShoulder1  -0.0812933 3.8375 -17.6918
LeftArm  -33.5359 10.6787 -10.3157
LeftForeArm  20.9486 -30.1441 -5.40461
LeftHand  0.0401186 7.65053 4.00341
RightShoulder  -0.375945 -5.18764 15.1162
RightArm  -29.5288 5.05119 2.2788
RightForeArm  10.1963 27.3716 5.40873
RightHand  -0.384308 7.34335 -3.84481
LeftUpLeg  -5.81128 5.28906 8.12222
LeftLeg  21.9676 -3.5978 -1.27248
LeftFoot  -10.277 0.127175 -7.04123
LeftToes  -3.37426e-010 -1.91496e-010 5.23909e-011
287
root  -81.4865 40.6388 -0.350106 -22.2363 -85.1189 18.275
RightUpLeg  -4.4203 -11.0182 -5.69654
RightLeg  14.2027 10.1597 3.67103
RightFoot  -3.84134 -0.0965485 1.10352
RightToes  -2.9104e-010 0 -3.6325e-017
Spine  4.56752 -0.190118 6.29745
Spine1  0.622561 0.687931 -1.84949
HEad  17.7475 -47.7368 -22.1619
LeftShoulder1  -0.0918829 3.87103 -18.3287
LeftArm  -33.6836 11.1086 -11.3619
LeftForeArm  21.339 -33.0272 -6.08321
LeftHand  -0.0141958 5.66846 4.60569
RightShoulder  -0.409055 -5.28387 15.8352
RightArm  -28.3408 3.94553 3.6098
RightForeArm  9.33302 31.6362 6.43802
RightHand  -0.541284 8.50239 -4.94437
LeftUpLeg  -5.47207 4.61162 8.99698
LeftLeg  23.1103 -3.47849 -1.30463
LeftFoot  -10.8653 0.0924225 -6.6805
LeftToes  -3.37426e-010 -1.91496e-010 5.23909e-011
288
root  -81.3493 40.6129 -0.207361 -17.3654 -84.8593 13.1181
RightUpLeg  -4.12078 -11.0254 -5.70536
RightLeg  13.9086 9.87177 3.64516
RightFoot  -3.74085 -0.152293 1.90571
RightToes  -2.9104e-010 0 -3.6325e-017
Spine  4.94871 -0.346328 5.56468
Spine1  0.576111 0.376413 -0.704128
HEad  17.8189 -48.0508 -21.6834
LeftShoulder1  -0.107285 3.92028 -19.2493
LeftArm  -32.8623 10.1569 -12.4703
LeftForeArm  22.4072 -33.6246 -6.17941
LeftHand  -0.0378655 4.99576 4.48833
RightShoulder  -0.407538 -5.24774 16.2559
RightArm  -25.4783 2.37972 5.80032
RightForeArm  9.91186 35.851 7.52125
RightHand  -0.616936 6.66778 -6.25245
LeftUpLeg  -5.12862 3.75 10.2346
LeftLeg  24.6789 -3.86139 -1.60994
LeftFoot  -11.7628 0.0465275 -6.54799
LeftToes  -3.37426e-010 -1.91496e-010 5.23909e-011
289
root  -81.1244 40.6047 0.0664076 -19.7563 -85.2974 15.3902
RightUpLeg  -4.38372 -11.1691 -6.1872
RightLeg  13.8506 10.6767 3.71144
RightFoot  -3.33791 -0.200584 2.54251
RightToes  -2.9104e-010 0 -3.6325e-017
Spine  5.08215 -0.383859 4.8427
Spine1  1.0542 0.224711 -0.0164995
HEad  17.3496 -47.741 -21.4964
LeftShoulder1  -0.0645557 3.74523 -20.2338
LeftArm  -32.4066 10.3757 -14.4491
LeftForeArm  25.5151 -34.5287 -6.22863
LeftHand  -0.0611538 4.19235 4.11547
RightShoulder  -0.399751 -5.14799 17.1846
RightArm  -24.0777 2.23514 8.97655
RightForeArm  14.193 38.379 7.99504
RightHand  -0.522178 7.08746 -5.19984
LeftUpLeg  -4.65308 2.74566 10.8092
LeftLeg  25.9245 -4.31677 -1.95517
LeftFoot  -12.0057 0.0380724 -5.80961
LeftToes  -3.37426e-010 -1.91496e-010 5.23909e-011
290
root  -80.8778 40.5702 0.4079 -21.5764 -85.8919 17.3721
RightUpLeg  -5.18668 -11.2926 -6.58462
RightLeg  14.083 11.615 3.86051
RightFoot  -2.73831 -0.230979 2.8214
RightToes  -2.9104e-010 0 -3.6325e-017
Spine  5.28628 -0.505556 4.90384
Spine1  0.737026 0.170375 -0.397917
HEad  17.4732 -47.2259 -21.6405
LeftShoulder1  -0.100039 3.86175 -21.3168
LeftArm  -29.5606 9.50813 -15.7225
LeftForeArm  27.992 -33.1754 -5.74559
LeftHand  -0.0728971 3.48699 3.44622
RightShoulder  -0.464307 -5.31154 18.7261
RightArm  -19.0149 2.07998 11.6189
RightForeArm  16.1952 39.8942 8.33523
RightHand  -0.414654 6.70388 -4.32618
LeftUpLeg  -4.40654 1.69964 11.3332
LeftLeg  27.0385 -5.16789 -2.53171
LeftFoot  -12.4414 0.0192472 -5.73572
LeftToes  -3.37426e-010 -1.91496e-010 5.23909e-011
